<?xml version="1.0" encoding="UTF-8"?>
<svg version="1.1" xmlns="http://www.w3.org/2000/svg" width="200" height="200">
	<path
		d="M0 0 C8.72124771 5.41714141 13.35719415 14.64816525 18.1875 23.375 C18.88556807 24.6189275 19.5847267 25.86224355 20.28491211 27.10498047 C21.72172086 29.6560453 23.15475637 32.20917275 24.58544922 34.76367188 C27.75628454 40.41325251 31.00409723 46.01832372 34.25 51.625 C35.48190345 53.7577359 36.71367402 55.89054857 37.9453125 58.0234375 C38.55665039 59.08143555 39.16798828 60.13943359 39.79785156 61.22949219 C44.89763283 70.05593531 49.99245176 78.8852368 55.08251953 87.71728516 C56.50972819 90.19177926 57.93993112 92.66451048 59.37109375 95.13671875 C60.1017128 96.40355916 60.83219735 97.67047716 61.5625 98.9375 C62.15804687 99.96746094 62.75359375 100.99742187 63.3671875 102.05859375 C66.73468906 108.28548274 66.85733804 116.1307254 65.0390625 122.921875 C62.45656297 128.61661755 58.06201148 132.94384627 52.38901234 135.55994606 C49.59600193 136.53183888 47.52856899 136.75608205 44.58439636 136.76742554 C43.07688057 136.78022049 43.07688057 136.78022049 41.53890991 136.79327393 C40.44736603 136.79236755 39.35582214 136.79146118 38.23120117 136.79052734 C37.07289291 136.79724457 35.91458466 136.80396179 34.72117615 136.81088257 C30.89089674 136.8298848 27.06079237 136.83378798 23.23046875 136.8359375 C21.23980061 136.8407395 19.24913243 136.84554501 17.25846559 136.85085833 C10.999039 136.8671278 4.73966991 136.87202867 -1.51977539 136.87060547 C-7.96310694 136.86940486 -14.40610308 136.89049363 -20.8493498 136.9220928 C-26.39264549 136.94830329 -31.93583197 136.95897075 -37.4791891 136.95769465 C-40.78492169 136.95718634 -44.09029021 136.96465339 -47.39597511 136.98405075 C-51.08693766 137.00368015 -54.77704073 136.99788343 -58.46801758 136.98583984 C-59.55348877 136.99707886 -60.63895996 137.00831787 -61.75732422 137.01989746 C-69.21141821 136.95819635 -74.53386293 135.76071577 -80.3359375 130.75390625 C-80.78195313 130.19574219 -81.22796875 129.63757813 -81.6875 129.0625 C-82.14898437 128.50691406 -82.61046875 127.95132813 -83.0859375 127.37890625 C-86.82982927 121.64383637 -87.64462682 115.37641885 -86.80419922 108.63525391 C-85.18867018 101.61965464 -80.69362287 95.3302581 -76.98925781 89.25976562 C-74.7005555 85.49280422 -72.50104162 81.67634344 -70.29370117 77.86132812 C-68.53262722 74.82346935 -66.75818337 71.79377212 -64.98046875 68.765625 C-61.24923931 62.40228797 -57.55790897 56.01639662 -53.875 49.625 C-53.26068115 48.55975098 -52.6463623 47.49450195 -52.01342773 46.39697266 C-49.07588465 41.30155508 -46.1417406 36.20421043 -43.21363831 31.10336304 C-41.84743486 28.72402828 -40.47969744 26.34557718 -39.11178589 23.96722412 C-38.15120135 22.2955961 -37.19287822 20.62266921 -36.23461914 18.94970703 C-27.81948388 4.32001576 -27.81948388 4.32001576 -23.25 1.6875 C-22.24259766 1.09001953 -22.24259766 1.09001953 -21.21484375 0.48046875 C-14.96627608 -2.7400456 -6.42684577 -2.86057645 0 0 Z "
		fill="#FFFFFF" transform="translate(110.3125,32.5)" />
</svg>